<!-- Generated by IcoMoon.io -->
<svg version="1.1" xmlns="http://www.w3.org/2000/svg" width="39" height="32" viewBox="0 0 39 32">
<title>bem</title>
<path fill="#000" d="M0 4.952h9.067v2.667h-9.067zM0 0h9.067v2.667h-9.067zM16.267 9.867h-16.267v2.667h15.657c1.714 0 5.714 0.038 7.2 2.438v-1.486c-0.724-2.362-2.857-3.619-6.59-3.619zM16.305 14.819h-16.305v2.667h15.657c3.81 0 6.21 0.152 7.2 0.686v-1.181c-0.762-1.867-3.962-2.171-6.552-2.171zM16.267 27.39h-16.267v-2.667h15.657c1.714 0 5.714-0.038 7.2-2.438v1.486c-0.724 2.362-2.857 3.619-6.59 3.619zM16.305 22.438h-16.305v-2.667h15.657c3.81 0 6.21-0.152 7.2-0.686v1.181c-0.762 1.867-3.962 2.171-6.552 2.171zM26.819 32h11.962v-1.638h-11.619c-1.029 0-3.467-0.038-4.343-1.448v0.914c0.419 1.41 1.714 2.171 4 2.171zM26.781 28.99h11.962v-1.638h-11.581c-2.324 0-3.771-0.076-4.343-0.419v0.724c0.457 1.143 2.4 1.333 3.962 1.333z"></path>
</svg>
